<svg width="512" height="512" viewBox="19.52 24.67 118.56 118.56" fill="none" xmlns="http://www.w3.org/2000/svg">
<path fill-rule="evenodd" clip-rule="evenodd" d="M99.4729 34.5235C96.236 31.6897 91.38 31.7233 88.1523 34.5349C85.5575 36.7955 82.2334 38.0402 78.7905 38.0402C75.3484 38.0402 72.0242 36.7953 69.4305 34.5349C66.2003 31.721 61.3434 31.6918 58.1071 34.5253L58.0908 34.5396L58.0748 34.554C48.2667 43.3747 47.1499 53.7256 47.4465 59.8038L43.4576 62.7658C39.8806 65.3765 37.7507 69.5706 37.7507 74.0019V79.3419C37.7507 96.491 44.4504 113.45 55.6029 123.552C64.0759 131.225 71.5283 135.464 78.7891 135.476H78.8006C86.0547 135.464 93.5073 131.225 101.979 123.552C113.132 113.45 119.831 96.4909 119.831 79.3419V74.0019C119.831 69.5748 117.705 65.379 114.141 62.7782L110.142 59.8086C110.423 53.522 109.086 43.1177 99.4982 34.5459L99.4856 34.5347L99.4729 34.5235Z" fill="white"/>
<path fill-rule="evenodd" clip-rule="evenodd" d="M76.9214 55.9619C76.4869 55.5152 75.9089 54.9209 75.0607 54.144C69.3261 48.8901 61.7467 47.4373 55.6746 51.5566C56.934 47.1499 59.437 43.144 62.9578 40.0618C63.4157 39.661 64.1188 39.6707 64.5942 40.0846C68.543 43.5122 73.4586 45.4009 78.7907 45.4009C84.1228 45.4009 89.0515 43.5122 92.9871 40.0846C93.4617 39.6707 94.1657 39.661 94.6236 40.0618C98.1443 43.144 100.647 47.1499 101.907 51.5566C95.8347 47.4373 88.2553 48.8901 82.5206 54.144C81.6725 54.9209 81.0944 55.5152 80.66 55.9619C79.8015 56.8445 79.5038 57.1506 78.7907 57.1506C78.0776 57.1506 77.7798 56.8445 76.9214 55.9619ZM59.5432 78.7502C63.9956 82.9302 69.6573 85.4921 75.7804 86.1293C78.3458 90.4981 79.7581 95.9972 79.7581 101.688C79.7581 110.463 76.1187 118.85 69.7539 124.871C67.0057 123.234 63.9947 120.932 60.6884 117.937C55.1989 112.965 50.9179 105.909 48.2839 97.8947L59.5432 78.7502Z" fill="#475B87"/>
<path fill-rule="evenodd" clip-rule="evenodd" d="M47.9456 68.8685L51.7573 66.0386C52.7469 69.4591 54.371 72.66 56.5585 75.4794L46.7266 92.1956C45.8126 88.0368 45.3265 83.7074 45.3265 79.3421V74.002C45.3265 71.9516 46.2748 70.0849 47.9456 68.8685ZM105.882 66.0811L109.652 68.8812C111.306 70.0853 112.255 71.9511 112.255 74.0015V79.3416C112.255 90.345 109.179 101.12 103.896 109.49C105.467 105.032 106.36 100.345 106.36 95.8881C106.36 88.8571 104.354 82.0872 100.554 76.2312C103.07 73.2325 104.898 69.536 105.882 66.0811Z" fill="#E9EDF5"/>
<path fill-rule="evenodd" clip-rule="evenodd" d="M103.896 109.49C109.179 101.119 112.256 90.3454 112.256 79.3419V74.0019C112.256 71.9515 111.306 70.0856 109.652 68.8816L105.882 66.0815C104.898 69.5363 103.07 73.2329 100.554 76.2316C104.354 82.0875 106.36 88.8575 106.36 95.8876C106.36 100.344 105.466 105.031 103.896 109.49ZM78.7942 127.9C81.8966 127.895 85.4833 126.512 89.6368 123.719C96.7856 117.845 102.129 106 102.129 95.8876C102.129 90.0053 100.537 84.3313 97.5159 79.3551C92.8579 83.4506 86.9659 85.8464 80.6196 86.2305C82.8036 90.8077 83.9892 96.1829 83.9892 101.688C83.9892 111.109 80.2865 120.132 73.7635 126.856C75.5661 127.547 77.2412 127.898 78.7942 127.9ZM60.6876 117.937C63.9948 120.931 67.005 123.234 69.7541 124.871C76.1189 118.85 79.7574 110.463 79.7574 101.688C79.7574 95.9965 78.346 90.4974 75.7805 86.1294C69.6574 85.4923 63.9948 82.9303 59.5433 78.7504L48.2841 97.894C50.9172 105.909 55.1991 112.965 60.6876 117.937ZM45.3258 74.0019V79.3419C45.3258 83.7081 45.8118 88.0375 46.7259 92.1954L56.5578 75.4793C54.3712 72.6598 52.747 69.459 51.7574 66.0384L47.9457 68.8684C46.2741 70.0847 45.3258 71.9515 45.3258 74.0019ZM82.4998 60.2443C81.1682 61.8636 80.126 63.1311 78.7898 63.1311C77.4538 63.1311 76.4122 61.8641 75.0812 60.2452C74.5323 59.5775 73.9341 58.85 73.2459 58.1268C69.0053 53.6076 63.5844 52.4765 59.6427 54.0444C56.2757 55.3838 54.6594 58.4757 55.1068 62.4174C55.94 67.3268 58.2075 71.7906 61.708 75.2745C66.1815 79.7277 72.1859 82.1798 78.7898 82.1798C85.3945 82.1798 91.399 79.7277 95.8725 75.2745C99.3721 71.7906 101.64 67.3268 102.474 62.4174C102.92 58.4757 101.305 55.3838 97.9369 54.0444C93.9969 52.4765 88.576 53.6076 84.3346 58.1268C83.6466 58.8497 83.0486 59.5769 82.4998 60.2443ZM92.9862 40.0844C89.0515 43.512 84.1219 45.4007 78.7898 45.4007C73.4577 45.4007 68.543 43.512 64.5942 40.0844C64.1188 39.6704 63.4157 39.6608 62.9578 40.0615C59.437 43.1438 56.934 47.1497 55.6745 51.5563C61.7467 47.437 69.3252 48.8907 75.0607 54.1437C75.9077 54.9199 76.4853 55.5137 76.9196 55.9602C77.7791 56.8439 78.0772 57.1504 78.7907 57.1504C79.5038 57.1504 79.8015 56.8442 80.66 55.9616C81.0944 55.515 81.6725 54.9207 82.5206 54.1437C88.2553 48.8907 95.8338 47.437 101.907 51.5563C100.647 47.1497 98.1435 43.1438 94.6236 40.0615C94.1657 39.6608 93.4617 39.6704 92.9862 40.0844ZM106.77 61.3531L112.214 65.3959C114.942 67.3813 116.58 70.6033 116.58 74.0019V79.3419C116.58 95.7487 110.15 111.766 99.7966 121.143C91.4596 128.694 84.7855 132.216 78.7942 132.226C72.7959 132.216 66.1217 128.694 57.7838 121.143C47.4316 111.766 41 95.7487 41 79.3419V74.0019C41 70.6033 42.6391 67.3813 45.3829 65.3836L50.8214 61.3452C50.2932 56.239 50.4356 45.7944 60.2473 36.9705C62.2459 35.2207 65.2762 35.2269 67.295 36.9855C70.4809 39.7618 74.5633 41.2902 78.7898 41.2902C83.0172 41.2902 87.0995 39.7618 90.2863 36.9855C92.3042 35.2277 95.3337 35.2198 97.3314 36.9688C106.869 45.4956 107.325 55.9973 106.77 61.3531ZM61.7822 63.7679C61.7822 61.4195 63.2693 59.5089 65.0973 59.5089C66.9254 59.5089 68.4116 61.4195 68.4116 63.7679C68.4116 66.1171 66.9254 68.0269 65.0973 68.0269C63.2693 68.0269 61.7822 66.1171 61.7822 63.7679ZM78.7807 66.5697C80.353 66.5697 81.4823 67.7044 81.5922 69.3927C81.6089 69.644 81.6168 69.9016 81.6168 70.1582C81.6168 72.8475 81.0754 75.0403 79.8063 77.4906L79.758 77.5847C79.5743 77.9485 79.2966 78.4969 78.7807 78.4969C78.2672 78.4969 77.9896 77.951 77.8051 77.588L77.8034 77.5847L77.7559 77.4906C76.4859 75.0403 75.9454 72.8475 75.9454 70.1582C75.9454 69.9016 75.9533 69.644 75.97 69.3927C76.079 67.7044 77.2093 66.5697 78.7807 66.5697ZM96.7526 63.1033C96.3158 61.7138 95.0327 60.6424 93.5588 60.4385C91.5005 60.1538 89.4088 61.3886 87.9613 63.7396C87.5262 64.4436 87.724 65.0403 88.0544 65.3629C88.2803 65.5843 88.5818 65.7056 88.9236 65.7135L88.9319 65.7142C88.935 65.7143 88.9381 65.7144 88.9411 65.7144C88.9426 65.7144 88.9441 65.7144 88.9456 65.7144C89.3504 65.7144 89.7254 65.448 90.0012 65.2522L90.0038 65.2504L90.1286 65.1634C91.6209 64.1527 92.8777 64.0797 94.2057 64.9243C94.9404 65.3919 95.6997 65.4376 96.2367 65.0456C96.7922 64.6387 96.9952 63.8758 96.7526 63.1033Z" fill="#020D26"/>
</svg>
