<svg width="1130" height="168" viewBox="0 0 1130 168" fill="none" xmlns="http://www.w3.org/2000/svg">
<rect width="1130" height="168" fill="white"/>
<path fill-rule="evenodd" clip-rule="evenodd" d="M169.83 108.187H179.49V72.9789H169.83V108.187ZM180.19 63.3196C180.19 64.9069 179.7 66.1783 178.721 67.1348C177.74 68.0913 176.386 68.569 174.661 68.569C172.981 68.569 171.638 68.0913 170.636 67.1348C169.632 66.1783 169.13 64.9069 169.13 63.3196C169.13 61.7791 169.632 60.5087 170.636 59.5044C171.638 58.5021 172.981 58 174.661 58C176.341 58 177.681 58.4894 178.685 59.4693C179.688 60.4492 180.19 61.7343 180.19 63.3196ZM148.559 108.887C142.026 108.887 137.091 106.892 133.755 102.903C130.418 98.9128 128.75 93.0453 128.75 85.2989C128.75 77.8324 130.476 72.1033 133.93 68.1145C137.383 64.1248 142.352 62.13 148.839 62.13C151.312 62.13 153.645 62.4098 155.838 62.9695C158.031 63.5291 160.109 64.393 162.069 65.56L158.148 73.2586C156.702 72.4669 155.197 71.8488 153.634 71.4042C152.07 70.9615 150.542 70.7392 149.049 70.7392C145.549 70.7392 142.982 71.918 141.349 74.2736C139.716 76.6312 138.9 80.3059 138.9 85.2989C138.9 90.4323 139.716 94.2231 141.349 96.6733C142.982 99.1225 145.549 100.347 149.049 100.347C149.889 100.347 150.694 100.291 151.464 100.173C152.234 100.057 152.991 99.882 153.738 99.647V85.7884H162.769V105.247C160.622 106.461 158.37 107.371 156.014 107.976C153.657 108.583 151.172 108.887 148.559 108.887ZM210.12 72.9787H199.97V64.2291H192.901L191.15 72.9787L184.431 73.9596V80.8879H190.45V96.7775C190.45 100.698 191.477 103.697 193.53 105.773C195.583 107.85 198.523 108.887 202.35 108.887C204.03 108.887 205.651 108.688 207.215 108.292C208.778 107.896 210.283 107.325 211.73 106.577L209.21 99.1585C208.276 99.5777 207.366 99.8926 206.48 100.102C205.593 100.313 204.753 100.418 203.96 100.418C202.513 100.418 201.486 100.102 200.88 99.4724C200.274 98.8426 199.97 97.7818 199.97 96.2881V80.8879H210.12V72.9787ZM234.94 108.887C228.407 108.887 223.472 106.892 220.136 102.903C216.8 98.9129 215.131 93.0453 215.131 85.2989C215.131 77.8324 216.857 72.1033 220.311 68.1146C223.764 64.1249 228.734 62.13 235.22 62.13C237.694 62.13 240.026 62.4098 242.22 62.9695C244.412 63.5291 246.49 64.393 248.45 65.5601L244.529 73.2587C243.084 72.467 241.578 71.8488 240.015 71.4042C238.451 70.9616 236.924 70.7393 235.431 70.7393C231.931 70.7393 229.363 71.918 227.73 74.2736C226.097 76.6312 225.281 80.306 225.281 85.2989C225.281 90.4323 226.097 94.2231 227.73 96.6733C229.363 99.1225 231.931 100.347 235.431 100.347C236.27 100.347 237.076 100.291 237.845 100.173C238.615 100.057 239.373 99.882 240.12 99.647V85.7884H249.15V105.247C247.003 106.461 244.751 107.371 242.395 107.976C240.039 108.583 237.553 108.887 234.94 108.887ZM256.163 72.9783V97.1281C256.163 100.861 257.096 103.754 258.963 105.808C260.828 107.862 263.442 108.888 266.802 108.888C268.715 108.888 270.512 108.49 272.192 107.697C273.872 106.904 275.622 105.644 277.441 103.918V108.188H286.541V72.9783H276.952V97.4079C275.644 98.3878 274.42 99.1113 273.277 99.5783C272.132 100.044 271.048 100.277 270.021 100.277C268.575 100.277 267.502 99.8815 266.802 99.0879C266.102 98.2942 265.752 97.0823 265.752 95.4472V72.9783H256.163ZM302.031 97.8279C302.031 99.0417 302.403 99.9748 303.151 100.627C303.897 101.281 304.97 101.608 306.37 101.608C307.63 101.608 308.809 101.387 309.906 100.942C311.002 100.499 312.156 99.812 313.37 98.8779V94.118H306.441C305.041 94.118 303.955 94.4446 303.186 95.0979C302.416 95.7521 302.031 96.6618 302.031 97.8279ZM322.749 85.2981V108.187H313.72V104.338C312.273 105.924 310.734 107.079 309.1 107.802C307.466 108.526 305.624 108.887 303.571 108.887C300.397 108.887 297.819 107.92 295.836 105.982C293.852 104.046 292.861 101.538 292.861 98.4577C292.861 95.2383 293.981 92.6838 296.222 90.7932C298.461 88.9037 301.564 87.9579 305.531 87.9579H313.37V86.2088C313.37 84.2481 312.916 82.8255 312.005 81.9383C311.095 81.053 309.613 80.6084 307.56 80.6084C306.066 80.6084 304.456 80.8307 302.731 81.2733C301.004 81.7179 299.044 82.4063 296.851 83.3384L293.981 76.059C296.501 74.8461 299.044 73.9131 301.61 73.2588C304.177 72.6066 306.626 72.279 308.96 72.279C313.626 72.279 317.091 73.3524 319.355 75.4994C321.617 77.6463 322.749 80.9126 322.749 85.2981ZM340.087 108.187V84.3884C341.767 83.3627 343.527 82.6158 345.371 82.1488C347.214 81.6827 349.302 81.4487 351.636 81.4487V72.2789C349.302 72.2789 347.191 72.7235 345.301 73.6088C343.411 74.496 341.509 75.8961 339.597 77.8091V72.9789H330.427V108.187H340.087ZM364.962 90.6878C364.962 94.2358 365.463 96.7776 366.466 98.3181C367.47 99.8576 369.185 100.627 371.611 100.627C372.591 100.627 373.56 100.464 374.517 100.137C375.472 99.8118 376.395 99.298 377.281 98.5979V81.1688C376.395 80.7954 375.531 80.5156 374.691 80.3284C373.852 80.1431 373.012 80.0486 372.172 80.0486C369.512 80.0486 367.644 80.8656 366.572 82.4987C365.498 84.1319 364.962 86.8619 364.962 90.6878ZM386.94 60.7289V108.187H377.841V104.407C376.534 105.947 375.122 107.079 373.606 107.803C372.09 108.525 370.422 108.887 368.602 108.887C364.308 108.887 361.018 107.336 358.733 104.232C356.445 101.13 355.303 96.6148 355.303 90.6878C355.303 84.8085 356.633 80.2699 359.292 77.0738C361.952 73.8788 365.662 72.2788 370.422 72.2788C371.635 72.2788 372.813 72.3958 373.956 72.6298C375.099 72.8638 376.208 73.2362 377.281 73.7491V60.7289H386.94ZM404.53 108.187H394.871V72.9789H404.53V108.187ZM403.761 67.1348C404.741 66.1783 405.231 64.9069 405.231 63.3196C405.231 61.7343 404.729 60.4492 403.726 59.4693C402.722 58.4894 401.381 58 399.701 58C398.021 58 396.679 58.5021 395.677 59.5044C394.672 60.5087 394.171 61.7791 394.171 63.3196C394.171 64.9069 394.672 66.1783 395.677 67.1348C396.679 68.0913 398.021 68.569 399.701 68.569C401.427 68.569 402.78 68.0913 403.761 67.1348ZM419.852 97.8279C419.852 99.0417 420.225 99.9748 420.973 100.627C421.718 101.281 422.792 101.608 424.192 101.608C425.452 101.608 426.631 101.387 427.727 100.942C428.823 100.499 429.978 99.812 431.192 98.8779V94.118H424.262C422.862 94.118 421.777 94.4446 421.008 95.0979C420.237 95.7521 419.852 96.6618 419.852 97.8279ZM440.571 85.2981V108.187H431.542V104.338C430.095 105.924 428.555 107.079 426.922 107.802C425.288 108.526 423.445 108.887 421.393 108.887C418.218 108.887 415.64 107.92 413.657 105.982C411.674 104.046 410.682 101.538 410.682 98.4577C410.682 95.2383 411.803 92.6838 414.043 90.7932C416.283 88.9037 419.385 87.9579 423.353 87.9579H431.192V86.2088C431.192 84.2481 430.737 82.8255 429.827 81.9383C428.917 81.053 427.435 80.6084 425.382 80.6084C423.888 80.6084 422.278 80.8307 420.552 81.2733C418.826 81.7179 416.866 82.4063 414.673 83.3384L411.803 76.059C414.323 74.8461 416.866 73.9131 419.432 73.2588C421.998 72.6066 424.447 72.279 426.782 72.279C431.448 72.279 434.912 73.3524 437.177 75.4994C439.439 77.6463 440.571 80.9126 440.571 85.2981ZM457.908 108.188V83.759C459.214 82.8259 460.498 82.1142 461.758 81.6238C463.018 81.1343 464.184 80.8886 465.258 80.8886C466.704 80.8886 467.766 81.2854 468.443 82.0781C469.119 82.8727 469.458 84.0856 469.458 85.7188V108.188H479.047V84.0388C479.047 80.2588 478.125 77.3542 476.282 75.3243C474.438 73.2943 471.838 72.2794 468.477 72.2794C466.471 72.2794 464.593 72.6889 462.843 73.504C461.094 74.321 459.284 75.5934 457.419 77.3191V72.9784H448.249V108.188H457.908Z" fill="#020D26"/>
<path fill-rule="evenodd" clip-rule="evenodd" d="M99.4729 34.5235C96.236 31.6897 91.38 31.7233 88.1523 34.5349C85.5575 36.7955 82.2334 38.0402 78.7905 38.0402C75.3484 38.0402 72.0242 36.7953 69.4305 34.5349C66.2003 31.721 61.3434 31.6918 58.1071 34.5253L58.0908 34.5396L58.0748 34.554C48.2667 43.3747 47.1499 53.7256 47.4465 59.8038L43.4576 62.7658C39.8806 65.3765 37.7507 69.5706 37.7507 74.0019V79.3419C37.7507 96.491 44.4504 113.45 55.6029 123.552C64.0759 131.225 71.5283 135.464 78.7891 135.476H78.8006C86.0547 135.464 93.5073 131.225 101.979 123.552C113.132 113.45 119.831 96.4909 119.831 79.3419V74.0019C119.831 69.5748 117.705 65.379 114.141 62.7782L110.142 59.8086C110.423 53.522 109.086 43.1177 99.4982 34.5459L99.4856 34.5347L99.4729 34.5235Z" fill="white"/>
<path fill-rule="evenodd" clip-rule="evenodd" d="M76.9214 55.9619C76.4869 55.5152 75.9089 54.9209 75.0607 54.144C69.3261 48.8901 61.7467 47.4373 55.6746 51.5566C56.934 47.1499 59.437 43.144 62.9578 40.0618C63.4157 39.661 64.1188 39.6707 64.5942 40.0846C68.543 43.5122 73.4586 45.4009 78.7907 45.4009C84.1228 45.4009 89.0515 43.5122 92.9871 40.0846C93.4617 39.6707 94.1657 39.661 94.6236 40.0618C98.1443 43.144 100.647 47.1499 101.907 51.5566C95.8347 47.4373 88.2553 48.8901 82.5206 54.144C81.6725 54.9209 81.0944 55.5152 80.66 55.9619C79.8015 56.8445 79.5038 57.1506 78.7907 57.1506C78.0776 57.1506 77.7798 56.8445 76.9214 55.9619ZM59.5432 78.7502C63.9956 82.9302 69.6573 85.4921 75.7804 86.1293C78.3458 90.4981 79.7581 95.9972 79.7581 101.688C79.7581 110.463 76.1187 118.85 69.7539 124.871C67.0057 123.234 63.9947 120.932 60.6884 117.937C55.1989 112.965 50.9179 105.909 48.2839 97.8947L59.5432 78.7502Z" fill="#475B87"/>
<path fill-rule="evenodd" clip-rule="evenodd" d="M47.9456 68.8685L51.7573 66.0386C52.7469 69.4591 54.371 72.66 56.5585 75.4794L46.7266 92.1956C45.8126 88.0368 45.3265 83.7074 45.3265 79.3421V74.002C45.3265 71.9516 46.2748 70.0849 47.9456 68.8685ZM105.882 66.0811L109.652 68.8812C111.306 70.0853 112.255 71.9511 112.255 74.0015V79.3416C112.255 90.345 109.179 101.12 103.896 109.49C105.467 105.032 106.36 100.345 106.36 95.8881C106.36 88.8571 104.354 82.0872 100.554 76.2312C103.07 73.2325 104.898 69.536 105.882 66.0811Z" fill="#E9EDF5"/>
<path fill-rule="evenodd" clip-rule="evenodd" d="M103.896 109.49C109.179 101.119 112.256 90.3454 112.256 79.3419V74.0019C112.256 71.9515 111.306 70.0856 109.652 68.8816L105.882 66.0815C104.898 69.5363 103.07 73.2329 100.554 76.2316C104.354 82.0875 106.36 88.8575 106.36 95.8876C106.36 100.344 105.466 105.031 103.896 109.49ZM78.7942 127.9C81.8966 127.895 85.4833 126.512 89.6368 123.719C96.7856 117.845 102.129 106 102.129 95.8876C102.129 90.0053 100.537 84.3313 97.5159 79.3551C92.8579 83.4506 86.9659 85.8464 80.6196 86.2305C82.8036 90.8077 83.9892 96.1829 83.9892 101.688C83.9892 111.109 80.2865 120.132 73.7635 126.856C75.5661 127.547 77.2412 127.898 78.7942 127.9ZM60.6876 117.937C63.9948 120.931 67.005 123.234 69.7541 124.871C76.1189 118.85 79.7574 110.463 79.7574 101.688C79.7574 95.9965 78.346 90.4974 75.7805 86.1294C69.6574 85.4923 63.9948 82.9303 59.5433 78.7504L48.2841 97.894C50.9172 105.909 55.1991 112.965 60.6876 117.937ZM45.3258 74.0019V79.3419C45.3258 83.7081 45.8118 88.0375 46.7259 92.1954L56.5578 75.4793C54.3712 72.6598 52.747 69.459 51.7574 66.0384L47.9457 68.8684C46.2741 70.0847 45.3258 71.9515 45.3258 74.0019ZM82.4998 60.2443C81.1682 61.8636 80.126 63.1311 78.7898 63.1311C77.4538 63.1311 76.4122 61.8641 75.0812 60.2452C74.5323 59.5775 73.9341 58.85 73.2459 58.1268C69.0053 53.6076 63.5844 52.4765 59.6427 54.0444C56.2757 55.3838 54.6594 58.4757 55.1068 62.4174C55.94 67.3268 58.2075 71.7906 61.708 75.2745C66.1815 79.7277 72.1859 82.1798 78.7898 82.1798C85.3945 82.1798 91.399 79.7277 95.8725 75.2745C99.3721 71.7906 101.64 67.3268 102.474 62.4174C102.92 58.4757 101.305 55.3838 97.9369 54.0444C93.9969 52.4765 88.576 53.6076 84.3346 58.1268C83.6466 58.8497 83.0486 59.5769 82.4998 60.2443ZM92.9862 40.0844C89.0515 43.512 84.1219 45.4007 78.7898 45.4007C73.4577 45.4007 68.543 43.512 64.5942 40.0844C64.1188 39.6704 63.4157 39.6608 62.9578 40.0615C59.437 43.1438 56.934 47.1497 55.6745 51.5563C61.7467 47.437 69.3252 48.8907 75.0607 54.1437C75.9077 54.9199 76.4853 55.5137 76.9196 55.9602C77.7791 56.8439 78.0772 57.1504 78.7907 57.1504C79.5038 57.1504 79.8015 56.8442 80.66 55.9616C81.0944 55.515 81.6725 54.9207 82.5206 54.1437C88.2553 48.8907 95.8338 47.437 101.907 51.5563C100.647 47.1497 98.1435 43.1438 94.6236 40.0615C94.1657 39.6608 93.4617 39.6704 92.9862 40.0844ZM106.77 61.3531L112.214 65.3959C114.942 67.3813 116.58 70.6033 116.58 74.0019V79.3419C116.58 95.7487 110.15 111.766 99.7966 121.143C91.4596 128.694 84.7855 132.216 78.7942 132.226C72.7959 132.216 66.1217 128.694 57.7838 121.143C47.4316 111.766 41 95.7487 41 79.3419V74.0019C41 70.6033 42.6391 67.3813 45.3829 65.3836L50.8214 61.3452C50.2932 56.239 50.4356 45.7944 60.2473 36.9705C62.2459 35.2207 65.2762 35.2269 67.295 36.9855C70.4809 39.7618 74.5633 41.2902 78.7898 41.2902C83.0172 41.2902 87.0995 39.7618 90.2863 36.9855C92.3042 35.2277 95.3337 35.2198 97.3314 36.9688C106.869 45.4956 107.325 55.9973 106.77 61.3531ZM61.7822 63.7679C61.7822 61.4195 63.2693 59.5089 65.0973 59.5089C66.9254 59.5089 68.4116 61.4195 68.4116 63.7679C68.4116 66.1171 66.9254 68.0269 65.0973 68.0269C63.2693 68.0269 61.7822 66.1171 61.7822 63.7679ZM78.7807 66.5697C80.353 66.5697 81.4823 67.7044 81.5922 69.3927C81.6089 69.644 81.6168 69.9016 81.6168 70.1582C81.6168 72.8475 81.0754 75.0403 79.8063 77.4906L79.758 77.5847C79.5743 77.9485 79.2966 78.4969 78.7807 78.4969C78.2672 78.4969 77.9896 77.951 77.8051 77.588L77.8034 77.5847L77.7559 77.4906C76.4859 75.0403 75.9454 72.8475 75.9454 70.1582C75.9454 69.9016 75.9533 69.644 75.97 69.3927C76.079 67.7044 77.2093 66.5697 78.7807 66.5697ZM96.7526 63.1033C96.3158 61.7138 95.0327 60.6424 93.5588 60.4385C91.5005 60.1538 89.4088 61.3886 87.9613 63.7396C87.5262 64.4436 87.724 65.0403 88.0544 65.3629C88.2803 65.5843 88.5818 65.7056 88.9236 65.7135L88.9319 65.7142C88.935 65.7143 88.9381 65.7144 88.9411 65.7144C88.9426 65.7144 88.9441 65.7144 88.9456 65.7144C89.3504 65.7144 89.7254 65.448 90.0012 65.2522L90.0038 65.2504L90.1286 65.1634C91.6209 64.1527 92.8777 64.0797 94.2057 64.9243C94.9404 65.3919 95.6997 65.4376 96.2367 65.0456C96.7922 64.6387 96.9952 63.8758 96.7526 63.1033Z" fill="#020D26"/>
<path d="M504.736 130.296H525.736V124.416H511.792V60.828H525.736V54.948H504.736V130.296Z" fill="#1B2D55"/>
<path d="M546.896 96.236C555.28 96.236 559.952 92.332 559.952 85.484C559.952 83.5 559.504 81.836 558.48 80.492L564.304 79.084L562.192 72.236L553.04 75.692C551.312 75.052 549.264 74.668 546.896 74.668C538.512 74.668 533.776 78.572 533.776 85.356C533.776 89.132 535.184 92.076 537.872 93.932C534.608 95.468 533.136 97.58 533.136 100.332C533.136 102.636 534.352 104.556 536.336 105.836C532.88 107.244 531.472 109.42 531.472 112.044C531.472 116.588 535.952 120.62 545.68 120.62C556.112 120.62 562.512 115.308 562.512 108.716C562.512 103.724 558.992 100.204 551.888 100.204H543.44C541.904 100.204 541.136 99.564 541.136 98.604C541.136 97.58 541.776 96.812 544.016 96.044C544.912 96.172 545.872 96.236 546.896 96.236ZM546.896 90.22C543.504 90.22 542.032 88.556 542.032 85.356C542.032 82.284 543.504 80.748 546.896 80.748C550.288 80.748 551.76 82.284 551.76 85.484C551.76 88.62 550.288 90.22 546.896 90.22ZM539.664 110.7C539.664 109.42 540.176 108.332 541.584 107.5C542.16 107.564 542.864 107.628 543.504 107.628H551.184C553.36 107.628 554.192 108.716 554.192 110.124C554.192 112.428 551.44 114.412 546.064 114.412C541.84 114.412 539.664 113.004 539.664 110.7ZM573.584 71.276C576.912 71.276 578.64 69.228 578.64 66.476C578.64 63.852 576.912 61.612 573.584 61.612C570.32 61.612 568.528 63.852 568.528 66.476C568.528 69.228 570.32 71.276 573.584 71.276ZM578 75.308H569.168V107.5H578V75.308ZM607.587 75.308H598.307V67.308H591.843L590.243 75.308L584.099 76.204V82.54H589.603V97.068C589.603 104.492 593.699 108.14 600.483 108.14C603.555 108.14 606.435 107.436 609.059 106.028L606.755 99.244C605.027 100.012 603.427 100.396 601.955 100.396C599.458 100.396 598.307 99.436 598.307 96.62V82.54H607.587V75.308ZM627.583 96.236C635.968 96.236 640.64 92.332 640.64 85.484C640.64 83.5 640.192 81.836 639.168 80.492L644.992 79.084L642.88 72.236L633.728 75.692C632 75.052 629.952 74.668 627.583 74.668C619.2 74.668 614.464 78.572 614.464 85.356C614.464 89.132 615.872 92.076 618.56 93.932C615.296 95.468 613.824 97.58 613.824 100.332C613.824 102.636 615.04 104.556 617.024 105.836C613.568 107.244 612.16 109.42 612.16 112.044C612.16 116.588 616.64 120.62 626.368 120.62C636.8 120.62 643.2 115.308 643.2 108.716C643.2 103.724 639.68 100.204 632.576 100.204H624.128C622.592 100.204 621.824 99.564 621.824 98.604C621.824 97.58 622.464 96.812 624.704 96.044C625.6 96.172 626.56 96.236 627.583 96.236ZM627.583 90.22C624.192 90.22 622.72 88.556 622.72 85.356C622.72 82.284 624.192 80.748 627.583 80.748C630.976 80.748 632.448 82.284 632.448 85.484C632.448 88.62 630.976 90.22 627.583 90.22ZM620.352 110.7C620.352 109.42 620.864 108.332 622.272 107.5C622.848 107.564 623.552 107.628 624.192 107.628H631.872C634.048 107.628 634.88 108.716 634.88 110.124C634.88 112.428 632.128 114.412 626.752 114.412C622.528 114.412 620.352 113.004 620.352 110.7ZM649.663 75.308V97.388C649.663 104.364 653.311 108.14 659.391 108.14C662.527 108.14 665.407 107.116 669.119 103.596V107.5H677.439V75.308H668.671V97.644C666.047 99.564 663.999 100.268 662.335 100.268C659.775 100.268 658.431 98.988 658.431 95.852V75.308H649.663ZM712.464 107.5V86.572C712.464 78.188 707.984 74.668 699.856 74.668C695.888 74.668 691.024 75.756 686.16 78.124L688.784 84.78C692.944 82.988 695.952 82.284 698.576 82.284C702.288 82.284 703.888 83.756 703.888 87.404V89.004H696.72C688.976 89.004 685.136 93.164 685.136 98.604C685.136 104.364 689.232 108.14 694.928 108.14C698.512 108.14 701.456 106.988 704.208 103.98V107.5H712.464ZM697.488 101.484C694.992 101.484 693.52 100.332 693.52 98.028C693.52 96.044 694.736 94.636 697.552 94.636H703.888V98.988C701.52 100.844 699.6 101.484 697.488 101.484ZM729.937 107.5V85.74C733.201 83.756 736.529 83.052 740.497 83.052V74.668C736.913 74.668 733.521 75.692 729.489 79.724V75.308H721.105V107.5H729.937ZM773.808 107.5V64.108H764.976V76.012C762.992 75.116 760.944 74.668 758.704 74.668C751.216 74.668 744.88 79.34 744.88 91.5C744.88 103.724 750.256 108.14 757.04 108.14C760.176 108.14 762.928 106.988 765.488 104.044V107.5H773.808ZM759.792 100.588C755.632 100.588 753.712 98.412 753.712 91.5C753.712 84.076 755.76 81.772 760.304 81.772C761.776 81.772 763.312 82.092 764.976 82.796V98.732C763.184 100.076 761.456 100.588 759.792 100.588ZM787.271 71.276C790.599 71.276 792.327 69.228 792.327 66.476C792.327 63.852 790.599 61.612 787.271 61.612C784.007 61.612 782.215 63.852 782.215 66.476C782.215 69.228 784.007 71.276 787.271 71.276ZM791.687 75.308H782.855V107.5H791.687V75.308ZM826.714 107.5V86.572C826.714 78.188 822.234 74.668 814.106 74.668C810.138 74.668 805.274 75.756 800.41 78.124L803.034 84.78C807.194 82.988 810.202 82.284 812.826 82.284C816.538 82.284 818.138 83.756 818.138 87.404V89.004H810.97C803.226 89.004 799.386 93.164 799.386 98.604C799.386 104.364 803.482 108.14 809.178 108.14C812.762 108.14 815.706 106.988 818.458 103.98V107.5H826.714ZM811.738 101.484C809.242 101.484 807.77 100.332 807.77 98.028C807.77 96.044 808.986 94.636 811.802 94.636H818.138V98.988C815.77 100.844 813.85 101.484 811.738 101.484ZM844.187 107.5V85.164C846.875 83.244 849.179 82.54 850.907 82.54C853.467 82.54 854.747 83.884 854.747 86.956V107.5H863.515V85.42C863.515 78.444 859.931 74.668 853.851 74.668C850.651 74.668 847.579 75.692 843.739 79.276V75.308H835.355V107.5H844.187ZM890.659 93.804V86.444H872.099V93.804H890.659ZM909.786 108.14C917.658 108.14 921.946 104.044 921.946 97.9C921.946 87.788 906.97 88.236 906.97 83.884C906.97 82.54 907.866 81.708 910.17 81.708C912.474 81.708 915.354 82.54 918.426 84.204L921.754 77.548C918.298 75.692 914.522 74.668 910.362 74.668C902.81 74.668 898.458 78.892 898.458 84.524C898.458 95.276 913.37 94.124 913.37 98.732C913.37 100.396 912.218 101.164 909.85 101.164C907.29 101.164 903.77 100.204 900.25 98.028L897.049 104.62C900.698 106.796 905.626 108.14 909.786 108.14ZM957.078 107.5V85.42C957.078 78.444 953.494 74.668 947.414 74.668C944.342 74.668 941.333 75.628 937.75 78.828V64.108H928.918V107.5H937.75V85.164C940.438 83.244 942.742 82.54 944.47 82.54C947.03 82.54 948.31 83.884 948.31 86.956V107.5H957.078ZM970.334 71.276C973.662 71.276 975.39 69.228 975.39 66.476C975.39 63.852 973.662 61.612 970.334 61.612C967.07 61.612 965.278 63.852 965.278 66.476C965.278 69.228 967.07 71.276 970.334 71.276ZM974.75 75.308H965.918V107.5H974.75V75.308ZM1009.9 105.196L1007.34 98.86C1004.27 100.332 1001.71 100.908 998.961 100.908C994.225 100.908 991.473 99.052 991.025 93.996H1007.98L1010.35 91.18C1010.48 90.668 1010.61 89.836 1010.61 88.94C1010.61 79.916 1005.3 74.668 996.977 74.668C988.017 74.668 982.001 80.876 982.001 91.628C982.001 103.084 987.633 108.14 998.321 108.14C1002.86 108.14 1006.77 107.052 1009.9 105.196ZM996.913 81.452C1000.56 81.452 1002.22 83.564 1002.29 88.044H991.089C991.601 83.116 993.713 81.452 996.913 81.452ZM1026.44 64.108H1017.61V107.5H1026.44V64.108ZM1062.81 107.5V64.108H1053.98V76.012C1051.99 75.116 1049.94 74.668 1047.7 74.668C1040.22 74.668 1033.88 79.34 1033.88 91.5C1033.88 103.724 1039.26 108.14 1046.04 108.14C1049.18 108.14 1051.93 106.988 1054.49 104.044V107.5H1062.81ZM1048.79 100.588C1044.63 100.588 1042.71 98.412 1042.71 91.5C1042.71 84.076 1044.76 81.772 1049.3 81.772C1050.78 81.772 1052.31 82.092 1053.98 82.796V98.732C1052.18 100.076 1050.46 100.588 1048.79 100.588Z" fill="#08D7BE"/>
<path d="M1072.2 60.828H1086.14V124.416H1072.2V130.296H1093.2V54.948H1072.2V60.828Z" fill="#1B2D55"/>
</svg>
